<svg width="32" height="32" viewBox="0 0 32 32" fill="none" xmlns="http://www.w3.org/2000/svg">
<rect width="32" height="32" rx="7" fill="#F5F5F5"/>
<g filter="url(#filter0_d)">
<path d="M14.0391 18.9883V25H10.5234V7.9375H17.1797C18.4609 7.9375 19.5859 8.17188 20.5547 8.64062C21.5312 9.10938 22.2812 9.77734 22.8047 10.6445C23.3281 11.5039 23.5898 12.4844 23.5898 13.5859C23.5898 15.2578 23.0156 16.5781 21.8672 17.5469C20.7266 18.5078 19.1445 18.9883 17.1211 18.9883H14.0391ZM14.0391 16.1406H17.1797C18.1094 16.1406 18.8164 15.9219 19.3008 15.4844C19.793 15.0469 20.0391 14.4219 20.0391 13.6094C20.0391 12.7734 19.793 12.0977 19.3008 11.582C18.8086 11.0664 18.1289 10.8008 17.2617 10.7852H14.0391V16.1406Z" fill="black"/>
</g>
<mask id="mask0" mask-type="alpha" maskUnits="userSpaceOnUse" x="10" y="7" width="14" height="18">
<path d="M14.0391 18.9883V25H10.5234V7.9375H17.1797C18.4609 7.9375 19.5859 8.17188 20.5547 8.64062C21.5312 9.10938 22.2812 9.77734 22.8047 10.6445C23.3281 11.5039 23.5898 12.4844 23.5898 13.5859C23.5898 15.2578 23.0156 16.5781 21.8672 17.5469C20.7266 18.5078 19.1445 18.9883 17.1211 18.9883H14.0391ZM14.0391 16.1406H17.1797C18.1094 16.1406 18.8164 15.9219 19.3008 15.4844C19.793 15.0469 20.0391 14.4219 20.0391 13.6094C20.0391 12.7734 19.793 12.0977 19.3008 11.582C18.8086 11.0664 18.1289 10.8008 17.2617 10.7852H14.0391V16.1406Z" fill="black"/>
</mask>
<g mask="url(#mask0)">
<rect x="-0.722778" y="13.175" width="25.2267" height="21.4585" transform="rotate(-31.2873 -0.722778 13.175)" fill="url(#paint0_linear)"/>
</g>
<defs>
<filter id="filter0_d" x="9.52344" y="7.4375" width="17.0664" height="21.0625" filterUnits="userSpaceOnUse" color-interpolation-filters="sRGB">
<feFlood flood-opacity="0" result="BackgroundImageFix"/>
<feColorMatrix in="SourceAlpha" type="matrix" values="0 0 0 0 0 0 0 0 0 0 0 0 0 0 0 0 0 0 127 0" result="hardAlpha"/>
<feOffset dx="1" dy="1.5"/>
<feGaussianBlur stdDeviation="1"/>
<feComposite in2="hardAlpha" operator="out"/>
<feColorMatrix type="matrix" values="0 0 0 0 0 0 0 0 0 0 0 0 0 0 0 0 0 0 0.25 0"/>
<feBlend mode="normal" in2="BackgroundImageFix" result="effect1_dropShadow"/>
<feBlend mode="normal" in="SourceGraphic" in2="effect1_dropShadow" result="shape"/>
</filter>
<linearGradient id="paint0_linear" x1="25.2206" y1="13.1751" x2="-3.20246" y2="15.9806" gradientUnits="userSpaceOnUse">
<stop stop-color="#E81CFF"/>
<stop offset="1" stop-color="#40C9FF"/>
</linearGradient>
</defs>
</svg>
